<svg width="154" height="152" viewBox="0 0 154 152" fill="none"
    xmlns="http://www.w3.org/2000/svg">
    <path d="M103.326 109.449L67.1384 138.577M103.326 109.449L118.332 67.9647M103.326 109.449L43.3359 67.9647M103.326 109.449L146.336 67.9647L133.779 38.8372M133.779 38.8372L87.4387 38.8372M133.779 38.8372L118.332 67.9647M22.1228 105.478L16.3352 49.5002L57.8698 15.888M22.1228 105.478L67.1384 138.577M22.1228 105.478L43.3359 67.9647M57.8698 15.888L87.4387 38.8372M57.8698 15.888L43.3359 67.9647M67.1384 138.577L43.3359 67.9647M87.4387 38.8372L118.332 67.9647" stroke="#111111" stroke-width="2"/>
    <path fill-rule="evenodd" clip-rule="evenodd" d="M110.666 21.3813L103.326 15.0265L105.637 12.3572L112.977 18.712L110.666 21.3813Z" fill="#111111"/>
    <path fill-rule="evenodd" clip-rule="evenodd" d="M37.4048 125.535L30.0642 119.18L32.375 116.51L39.7156 122.865L37.4048 125.535Z" fill="#111111"/>
    <path fill-rule="evenodd" clip-rule="evenodd" d="M26.813 137.892L19.4724 131.537L21.7832 128.868L29.1238 135.223L26.813 137.892Z" fill="#111111"/>
    <path fill-rule="evenodd" clip-rule="evenodd" d="M122.141 9.02415L114.8 2.66932L117.111 0L124.452 6.35483L122.141 9.02415Z" fill="#111111"/>
    <path fill-rule="evenodd" clip-rule="evenodd" d="M48.8794 113.177L41.5388 106.823L43.8496 104.153L51.1902 110.508L48.8794 113.177Z" fill="#111111"/>
    <circle cx="129.364" cy="126.661" r="3.8546" stroke="#111111" stroke-width="2"/>
    <circle cx="125.844" cy="59.8443" r="26.8443" fill="#9D70F9"/>
    <path d="M142.694 69.5164C142.856 69.4293 142.957 69.2601 142.957 69.0759L142.958 51.5265C142.958 51.3498 142.864 51.1863 142.712 51.0963C142.56 51.0063 142.372 51.0031 142.217 51.088L126.869 59.4999C126.713 59.5855 126.614 59.7478 126.61 59.9258L126.167 77.5416C126.163 77.7197 126.253 77.8867 126.405 77.98C126.557 78.0734 126.747 78.079 126.904 77.9947L142.694 69.5164Z" fill="#111111" stroke="white" stroke-linejoin="round"/>
    <path d="M110.7 69.5574C110.541 69.4688 110.443 69.301 110.444 69.1192L110.503 51.5429C110.503 51.3664 110.597 51.2033 110.749 51.1138C110.901 51.0242 111.089 51.0214 111.243 51.1064L126.678 59.5934C126.84 59.6827 126.94 59.8545 126.937 60.0398L126.644 77.6161C126.641 77.792 126.546 77.9533 126.394 78.0411C126.241 78.1289 126.054 78.1301 125.9 78.0444L110.7 69.5574Z" fill="#FF5656" stroke="white" stroke-linejoin="round"/>
    <path d="M126.985 42.5615C126.835 42.4795 126.654 42.4795 126.504 42.5615L111.059 51.0273C110.898 51.1151 110.799 51.2832 110.799 51.4658C110.799 51.6484 110.898 51.8165 111.059 51.9043L126.504 60.3701C126.654 60.4521 126.835 60.4521 126.985 60.3701L142.431 51.9043C142.591 51.8165 142.691 51.6484 142.691 51.4658C142.691 51.2832 142.591 51.1151 142.431 51.0273L126.985 42.5615Z" fill="#9D70F9" stroke="white" stroke-linejoin="round"/>
    <circle cx="29.6783" cy="59.8443" r="26.8443" fill="#FF5656"/>
    <g clip-path="url(#clip0_402_2365)">
        <path d="M47 57.0937C46.9495 55.0046 46.4363 53.0761 45.3679 51.2746C44.8126 50.3357 44.1564 49.4138 43.4077 48.6103C43.2731 48.4665 42.9029 48.1282 42.9029 48.1282L42.7262 43.5608L37.7037 44.8295C37.7037 44.8295 36.6269 44.4236 36.0632 44.2628C35.5668 44.1275 35.0789 44.0176 34.5741 43.933C34.4479 43.9076 33.9011 43.8484 33.9011 43.8484L32.2017 41.9031L30.3424 40L28.7103 41.7762L26.5482 44.2967C26.5482 44.2967 25.6228 44.5504 25.3283 44.6519C24.3777 44.9564 23.4102 45.4385 22.5689 45.9629C22.4175 46.056 21.9968 46.2928 21.9968 46.2928L13.9877 46.5888C13.9877 46.5888 15.9984 53.9642 16.0573 54.218C16.1162 54.5055 15.7628 55.1483 15.6787 55.4444C15.5105 56.0364 15.3506 56.637 15.2244 57.2375C15.1403 57.6435 14.8963 58.6246 14.8963 58.6246L10 64.2746L16.9995 68.1653C16.9995 68.1653 17.437 68.8588 17.5884 69.0872C17.8997 69.5608 18.2194 70.026 18.5896 70.4574C18.8672 70.7788 19.4141 71.5908 19.4141 71.5908L19.5487 77.3761L26.3631 75.5576C26.3631 75.5576 27.3895 75.8536 27.726 75.9382C28.8029 76.2088 29.9554 76.3526 31.0659 76.3696C31.3436 76.3696 31.9072 76.3696 31.9072 76.3696L36.9802 79.0085L38.7974 74.3819C38.7974 74.3819 39.0919 74.1705 39.6555 73.7476C40.5641 73.0625 41.3633 72.2759 42.0616 71.3878C42.2131 71.2017 42.7431 70.3643 42.7767 70.3474C42.9113 70.2798 46.8822 68.918 46.8822 68.918L44.678 65.0865C44.678 65.0865 44.6612 65.0358 44.6444 64.7059C44.6276 64.3338 44.6444 63.9616 44.6444 63.5979C44.6444 62.6845 44.6612 61.8386 44.4004 60.9506C43.189 56.8484 39.5462 53.7274 35.0873 53.5413C33.716 53.4821 32.3699 53.5751 31.108 54.1418C29.1646 55.013 27.5493 56.5862 26.8511 58.5654C26.2706 60.2147 26.1528 62.1601 26.9184 63.7755C27.7681 65.5771 29.417 66.8796 31.4613 67.1418C32.6392 67.2941 33.7328 67.1926 34.6498 66.4906C34.8686 66.3299 35.3145 65.8478 35.3145 65.8478C35.3145 65.8478 34.8518 65.9323 34.5152 65.9831C33.9432 66.0677 33.4384 66.0677 32.8663 66.0677C31.352 66.0677 29.9554 65.2388 29.1983 63.9616C28.2981 62.4476 28.5337 60.7053 29.4675 59.2589C30.4434 57.7534 31.9745 56.8822 33.7917 56.8822C37.6785 56.8822 40.7829 60.5699 40.3117 64.2576C39.7733 68.4867 35.9034 71.7346 31.5623 71.7346C25.9509 71.7346 20.188 66.9304 20.1544 61.255C20.1207 56.4424 22.2324 51.0039 27.1792 49.1516C28.8365 48.5426 30.5191 48.1197 32.1764 48.1197C34.4648 48.1197 36.5259 48.4157 38.6292 49.3461C40.2528 50.0651 41.5484 51.1223 42.7683 52.3572C44.005 53.609 44.9893 55.1483 45.7212 56.7215C45.9063 57.1275 46.1755 57.6773 46.3186 57.9902C46.5625 58.5146 46.7813 59.3774 46.7813 59.3774C46.7813 59.3774 47.0421 57.9226 47 57.0937Z" fill="white"/>
    </g>
    <path d="M78.9292 60.5699V54.9666H63.7754V47.3095H78.9292V41.7063L91.3452 51.1381L78.9292 60.5699Z" fill="#111111"/>
    <path d="M76.1919 79.4334V73.8301H91.3457V66.1731H76.1919V60.5698L63.7759 70.0016L76.1919 79.4334Z" fill="#111111"/>
    <defs>
        <clipPath id="clip0_402_2365">
            <rect width="37" height="39" fill="white" transform="translate(10 40)"/>
        </clipPath>
    </defs>
</svg>