<svg width="166" height="159" viewBox="0 0 166 159" fill="none"
  xmlns="http://www.w3.org/2000/svg">
  <path d="M2 107.001L1.18897 106.416L0.320156 107.621L1.76297 107.973L2 107.001ZM20.2103 81.7555L20.0115 80.7755L19.6281 80.8532L19.3992 81.1705L20.2103 81.7555ZM56.1191 74.4714L56.3179 75.4515L56.8501 75.3435L57.0494 74.8384L56.1191 74.4714ZM161.885 92.1337L162.216 93.0773L163.091 92.7705L162.851 91.8751L161.885 92.1337ZM71.3125 123.912L71.0754 124.884L71.3636 124.954L71.6436 124.856L71.3125 123.912ZM147.119 36.9714L148.085 36.7129L147.932 36.1408L147.357 36.0001L147.119 36.9714ZM77.6191 19.9714L77.8567 19.0001L77.0091 18.7927L76.6889 19.6045L77.6191 19.9714ZM2.81103 107.586L21.0213 82.3405L19.3992 81.1705L1.18897 106.416L2.81103 107.586ZM20.4091 82.7355L56.3179 75.4515L55.9203 73.4914L20.0115 80.7755L20.4091 82.7355ZM161.554 91.1901L70.9814 122.969L71.6436 124.856L162.216 93.0773L161.554 91.1901ZM71.5495 122.941L2.23703 106.03L1.76297 107.973L71.0754 124.884L71.5495 122.941ZM146.153 37.23L160.919 92.3923L162.851 91.8751L148.085 36.7129L146.153 37.23ZM57.0494 74.8384L78.5494 20.3384L76.6889 19.6045L55.1889 74.1045L57.0494 74.8384ZM77.3815 20.9428L146.882 37.9428L147.357 36.0001L77.8567 19.0001L77.3815 20.9428Z" fill="#111111"/>
  <path d="M71.426 123.65L77.119 19.4714" stroke="#111111" stroke-width="2"/>
  <path d="M71.4258 123.649L147.619 36.4714" stroke="#111111" stroke-width="2"/>
  <path d="M71.4254 123.649L18.8943 81.3384" stroke="#111111" stroke-width="2"/>
  <rect x="63.8945" y="145.353" width="11.0796" height="3.45801" transform="rotate(-73.0702 63.8945 145.353)" fill="#111111"/>
  <rect x="48.1504" y="140.562" width="11.0796" height="3.45801" transform="rotate(-73.0702 48.1504 140.562)" fill="#111111"/>
  <rect x="33.6201" y="136.227" width="11.0796" height="3.45801" transform="rotate(-73.0702 33.6201 136.227)" fill="#111111"/>
  <path d="M63.3002 22.3881C62.9468 25.4272 60.1967 27.6044 57.1576 27.251C54.1186 26.8977 51.9414 24.1475 52.2947 21.1085C52.6481 18.0694 55.3982 15.8922 58.4373 16.2456C61.4764 16.5989 63.6536 19.3491 63.3002 22.3881ZM54.3327 21.3454C54.1102 23.259 55.4811 24.9906 57.3946 25.2131C59.3081 25.4356 61.0397 24.0647 61.2622 22.1512C61.4847 20.2376 60.1139 18.506 58.2003 18.2835C56.2868 18.061 54.5552 19.4319 54.3327 21.3454Z" fill="#111111"/>
  <rect x="43.1602" y="13.6597" width="11.0796" height="3.45801" transform="rotate(96.6324 43.1602 13.6597)" fill="#111111"/>
  <rect x="129.615" y="22.7761" width="11.0796" height="3.45801" transform="rotate(-62.5856 129.615 22.7761)" fill="#111111"/>
  <rect x="115.006" y="15.1982" width="11.0796" height="3.45801" transform="rotate(-62.5856 115.006 15.1982)" fill="#111111"/>
  <path d="M116.209 54L84 72.0353V109.394L115.373 127L148 108.965L145.908 73.3235L116.209 54Z" fill="white"/>
  <path d="M148.562 109.585L115.733 127.212L116.653 90.587L148.563 73.0978L148.562 109.585Z" fill="#111111"/>
  <path d="M83.1688 109.678L114.772 127.323L115.381 90.7805L83.2914 73.1354L83.1688 109.678Z" fill="#FF5656"/>
  <path d="M116.021 54.4714L148.134 72.0726L116.021 89.6738L83.9072 72.0726L116.021 54.4714Z" fill="#9D70F9"/>
  <rect x="29.5" y="44.4275" width="73.6545" height="51.0727" fill="#9D70F9" stroke="white"/>
  <rect x="30" y="41" width="72.6545" height="3.92727" fill="#111111"/>
  <circle cx="93.8187" cy="42.9638" r="0.981817" fill="white"/>
  <circle cx="96.764" cy="42.9638" r="0.981817" fill="#9D70F9"/>
  <circle cx="99.7103" cy="42.9638" r="0.981817" fill="#FF5656"/>
  <path fill-rule="evenodd" clip-rule="evenodd" d="M57.7071 64.2929C58.0976 64.6834 58.0976 65.3166 57.7071 65.7071L46 77.4142L40.2929 71.7071C39.9024 71.3166 39.9024 70.6834 40.2929 70.2929C40.6834 69.9024 41.3166 69.9024 41.7071 70.2929L46 74.5858L56.2929 64.2929C56.6834 63.9024 57.3166 63.9024 57.7071 64.2929Z" fill="white"/>
  <path fill-rule="evenodd" clip-rule="evenodd" d="M75.0009 64.0001C75.3914 63.6096 76.0246 63.6096 76.4151 64.0001L87.7288 75.3138C88.1193 75.7043 88.1193 76.3375 87.7288 76.728C87.3383 77.1185 86.7051 77.1185 86.3146 76.728L75.0009 65.4143C74.6104 65.0238 74.6104 64.3906 75.0009 64.0001Z" fill="white"/>
  <path fill-rule="evenodd" clip-rule="evenodd" d="M87.7276 64.0001C88.1181 64.3906 88.1181 65.0238 87.7276 65.4143L76.4139 76.728C76.0234 77.1185 75.3902 77.1185 74.9997 76.728C74.6092 76.3375 74.6092 75.7043 74.9997 75.3138L86.3134 64.0001C86.7039 63.6096 87.3371 63.6096 87.7276 64.0001Z" fill="white"/>
</svg>
